<?xml version="1.0" encoding="UTF-8"?>
<svg width="800px" height="800px" viewBox="0 0 800 800" version="1.1" xmlns="http://www.w3.org/2000/svg">
    <g stroke="none" stroke-width="1" fill="none" fill-rule="evenodd">
        <g transform="translate(40, 40)" stroke="#6A0DAD" stroke-width="1" opacity="0.2">
            <!-- Nodes -->
            <circle cx="100" cy="100" r="8" fill="#6A0DAD" opacity="0.5"/>
            <circle cx="300" cy="150" r="8" fill="#6A0DAD" opacity="0.5"/>
            <circle cx="500" cy="100" r="8" fill="#6A0DAD" opacity="0.5"/>
            <circle cx="200" cy="300" r="8" fill="#6A0DAD" opacity="0.5"/>
            <circle cx="400" cy="350" r="8" fill="#6A0DAD" opacity="0.5"/>
            <circle cx="600" cy="300" r="8" fill="#6A0DAD" opacity="0.5"/>
            <circle cx="100" cy="500" r="8" fill="#6A0DAD" opacity="0.5"/>
            <circle cx="300" cy="550" r="8" fill="#6A0DAD" opacity="0.5"/>
            <circle cx="500" cy="500" r="8" fill="#6A0DAD" opacity="0.5"/>

            <!-- Connections -->
            <path d="M100,100 L300,150" />
            <path d="M300,150 L500,100" />
            <path d="M100,100 L200,300" />
            <path d="M300,150 L400,350" />
            <path d="M500,100 L600,300" />
            <path d="M200,300 L300,550" />
            <path d="M400,350 L300,550" />
            <path d="M600,300 L500,500" />
            <path d="M100,500 L300,550" />
            <path d="M300,550 L500,500" />
        </g>
    </g>
</svg> 