<?xml version="1.0" encoding="UTF-8"?>
<svg width="40" height="40" viewBox="0 0 40 40" fill="none" xmlns="http://www.w3.org/2000/svg">
  <rect width="40" height="40" rx="8" fill="#4A154B"/>
  <path d="M16 24.5a2.5 2.5 0 01-5 0c0-1.4 1.1-2.5 2.5-2.5h2.5v2.5zm1.3 0c0-1.4 1.1-2.5 2.5-2.5s2.5 1.1 2.5 2.5v6.2c0 1.4-1.1 2.5-2.5 2.5s-2.5-1.1-2.5-2.5v-6.2z" fill="#2EB67D"/>
  <path d="M24.5 16a2.5 2.5 0 010-5c1.4 0 2.5 1.1 2.5 2.5v2.5h-2.5zm0 1.3c1.4 0 2.5 1.1 2.5 2.5s-1.1 2.5-2.5 2.5h-6.2c-1.4 0-2.5-1.1-2.5-2.5s1.1-2.5 2.5-2.5h6.2z" fill="#ECB22E"/>
  <path d="M16 16a2.5 2.5 0 01-5 0c0-1.4 1.1-2.5 2.5-2.5h2.5v2.5zm1.3 0c0-1.4 1.1-2.5 2.5-2.5s2.5 1.1 2.5 2.5v6.2c0 1.4-1.1 2.5-2.5 2.5s-2.5-1.1-2.5-2.5V16z" fill="#E01E5A"/>
  <path d="M24.5 24.5a2.5 2.5 0 010-5c1.4 0 2.5 1.1 2.5 2.5v2.5h-2.5zm0 1.3c1.4 0 2.5 1.1 2.5 2.5s-1.1 2.5-2.5 2.5h-6.2c-1.4 0-2.5-1.1-2.5-2.5s1.1-2.5 2.5-2.5h6.2z" fill="#36C5F0"/>
</svg> 