<?xml version="1.0" encoding="UTF-8"?>
<svg width="40" height="40" viewBox="0 0 40 40" fill="none" xmlns="http://www.w3.org/2000/svg">
  <rect width="40" height="40" rx="8" fill="#635BFF"/>
  <path d="M11 20.5c0-1.3 1.1-1.9 2.9-1.9 1.7 0 3.8.5 5.5 1.4V16c-1.8-.7-3.6-1-5.5-1-4.4 0-7.3 2.3-7.3 5.7 0 5.6 7.7 4.7 7.7 7.1 0 1.5-1.3 2-3.1 2-1.9 0-4.3-.8-6.2-1.9v4.1c2.1.9 4.2 1.3 6.2 1.3 4.5 0 7.6-2.2 7.6-5.7 0-6-7.8-4.9-7.8-7.1zM29.6 15h-4v-3.6l-4.3.9V15h-2.4v3.8h2.4v5.5c0 3.4 1.3 5.2 4.8 5.2 1.3 0 2.8-.3 3.8-.7v-3.7c-.8.3-2.3.6-3 .6-1.3 0-1.8-.6-1.8-2.1v-4.8h4V15z" fill="white"/>
</svg> 